<svg xmlns="http://www.w3.org/2000/svg" width="1040" height="520" viewBox="0 0 1040 520" role="img">
<rect width="100%" height="100%" rx="28" fill="#f8fafc" />
<line x1="60" y1="462.0" x2="886" y2="462.0" stroke="#dbe4f0" stroke-width="1" />
<text x="48" y="466.0" text-anchor="end" fill="#64748b" font-size="12" font-family="Arial, sans-serif">0</text>
<line x1="60" y1="355.0" x2="886" y2="355.0" stroke="#dbe4f0" stroke-width="1" />
<text x="48" y="359.0" text-anchor="end" fill="#64748b" font-size="12" font-family="Arial, sans-serif">3</text>
<line x1="60" y1="248.0" x2="886" y2="248.0" stroke="#dbe4f0" stroke-width="1" />
<text x="48" y="252.0" text-anchor="end" fill="#64748b" font-size="12" font-family="Arial, sans-serif">6</text>
<line x1="60" y1="141.0" x2="886" y2="141.0" stroke="#dbe4f0" stroke-width="1" />
<text x="48" y="145.0" text-anchor="end" fill="#64748b" font-size="12" font-family="Arial, sans-serif">9</text>
<line x1="60" y1="34.0" x2="886" y2="34.0" stroke="#dbe4f0" stroke-width="1" />
<text x="48" y="38.0" text-anchor="end" fill="#64748b" font-size="12" font-family="Arial, sans-serif">12</text>
<text x="60.0" y="502" text-anchor="middle" fill="#64748b" font-size="12" font-family="Arial, sans-serif">09 Feb</text>
<text x="197.7" y="502" text-anchor="middle" fill="#64748b" font-size="12" font-family="Arial, sans-serif">16 Feb</text>
<text x="335.3" y="502" text-anchor="middle" fill="#64748b" font-size="12" font-family="Arial, sans-serif">23 Feb</text>
<text x="473.0" y="502" text-anchor="middle" fill="#64748b" font-size="12" font-family="Arial, sans-serif">02 Mar</text>
<text x="610.7" y="502" text-anchor="middle" fill="#64748b" font-size="12" font-family="Arial, sans-serif">09 Mar</text>
<text x="748.3" y="502" text-anchor="middle" fill="#64748b" font-size="12" font-family="Arial, sans-serif">16 Mar</text>
<text x="886.0" y="502" text-anchor="middle" fill="#64748b" font-size="12" font-family="Arial, sans-serif">23 Mar</text>
<polyline fill="none" stroke="#2563eb" stroke-width="4" stroke-linecap="round" stroke-linejoin="round" points="60.00,390.67 197.67,176.67 335.33,176.67 473.00,141.00 610.67,69.67 748.33,69.67 886.00,34.00" />
<circle cx="60.00" cy="390.67" r="4.5" fill="#2563eb" stroke="#fff" stroke-width="2" />
<circle cx="197.67" cy="176.67" r="4.5" fill="#2563eb" stroke="#fff" stroke-width="2" />
<circle cx="335.33" cy="176.67" r="4.5" fill="#2563eb" stroke="#fff" stroke-width="2" />
<circle cx="473.00" cy="141.00" r="4.5" fill="#2563eb" stroke="#fff" stroke-width="2" />
<circle cx="610.67" cy="69.67" r="4.5" fill="#2563eb" stroke="#fff" stroke-width="2" />
<circle cx="748.33" cy="69.67" r="4.5" fill="#2563eb" stroke="#fff" stroke-width="2" />
<circle cx="886.00" cy="34.00" r="4.5" fill="#2563eb" stroke="#fff" stroke-width="2" />
<polyline fill="none" stroke="#10b981" stroke-width="4" stroke-linecap="round" stroke-linejoin="round" points="60.00,462.00 197.67,426.33 335.33,390.67 473.00,355.00 610.67,355.00 748.33,283.67 886.00,283.67" />
<circle cx="60.00" cy="462.00" r="4.5" fill="#10b981" stroke="#fff" stroke-width="2" />
<circle cx="197.67" cy="426.33" r="4.5" fill="#10b981" stroke="#fff" stroke-width="2" />
<circle cx="335.33" cy="390.67" r="4.5" fill="#10b981" stroke="#fff" stroke-width="2" />
<circle cx="473.00" cy="355.00" r="4.5" fill="#10b981" stroke="#fff" stroke-width="2" />
<circle cx="610.67" cy="355.00" r="4.5" fill="#10b981" stroke="#fff" stroke-width="2" />
<circle cx="748.33" cy="283.67" r="4.5" fill="#10b981" stroke="#fff" stroke-width="2" />
<circle cx="886.00" cy="283.67" r="4.5" fill="#10b981" stroke="#fff" stroke-width="2" />
<polyline fill="none" stroke="#f97316" stroke-width="4" stroke-linecap="round" stroke-linejoin="round" points="60.00,390.67 197.67,212.33 335.33,248.00 473.00,248.00 610.67,176.67 748.33,248.00 886.00,212.33" />
<circle cx="60.00" cy="390.67" r="4.5" fill="#f97316" stroke="#fff" stroke-width="2" />
<circle cx="197.67" cy="212.33" r="4.5" fill="#f97316" stroke="#fff" stroke-width="2" />
<circle cx="335.33" cy="248.00" r="4.5" fill="#f97316" stroke="#fff" stroke-width="2" />
<circle cx="473.00" cy="248.00" r="4.5" fill="#f97316" stroke="#fff" stroke-width="2" />
<circle cx="610.67" cy="176.67" r="4.5" fill="#f97316" stroke="#fff" stroke-width="2" />
<circle cx="748.33" cy="248.00" r="4.5" fill="#f97316" stroke="#fff" stroke-width="2" />
<circle cx="886.00" cy="212.33" r="4.5" fill="#f97316" stroke="#fff" stroke-width="2" />
<rect x="904" y="35.0" width="112" height="26" rx="13" fill="#ffffff" stroke="#2563eb" stroke-width="1.5" />
<circle cx="918" cy="48.0" r="5" fill="#2563eb" />
<text x="930" y="52.0" fill="#0f172a" font-size="12" font-family="Arial, sans-serif" font-weight="700">Created 12</text>
<rect x="904" y="199.3" width="112" height="26" rx="13" fill="#ffffff" stroke="#f97316" stroke-width="1.5" />
<circle cx="918" cy="212.3" r="5" fill="#f97316" />
<text x="930" y="216.3" fill="#0f172a" font-size="12" font-family="Arial, sans-serif" font-weight="700">Open 7</text>
<rect x="904" y="270.7" width="112" height="26" rx="13" fill="#ffffff" stroke="#10b981" stroke-width="1.5" />
<circle cx="918" cy="283.7" r="5" fill="#10b981" />
<text x="930" y="287.7" fill="#0f172a" font-size="12" font-family="Arial, sans-serif" font-weight="700">Closed 5</text>
</svg>