<svg xmlns="http://www.w3.org/2000/svg" width="1040" height="520" viewBox="0 0 1040 520" role="img">
<rect width="100%" height="100%" rx="28" fill="#f8fafc" />
<line x1="60" y1="462.0" x2="886" y2="462.0" stroke="#dbe4f0" stroke-width="1" />
<text x="48" y="466.0" text-anchor="end" fill="#64748b" font-size="12" font-family="Arial, sans-serif">0</text>
<line x1="60" y1="355.0" x2="886" y2="355.0" stroke="#dbe4f0" stroke-width="1" />
<text x="48" y="359.0" text-anchor="end" fill="#64748b" font-size="12" font-family="Arial, sans-serif">5</text>
<line x1="60" y1="248.0" x2="886" y2="248.0" stroke="#dbe4f0" stroke-width="1" />
<text x="48" y="252.0" text-anchor="end" fill="#64748b" font-size="12" font-family="Arial, sans-serif">10</text>
<line x1="60" y1="141.0" x2="886" y2="141.0" stroke="#dbe4f0" stroke-width="1" />
<text x="48" y="145.0" text-anchor="end" fill="#64748b" font-size="12" font-family="Arial, sans-serif">15</text>
<line x1="60" y1="34.0" x2="886" y2="34.0" stroke="#dbe4f0" stroke-width="1" />
<text x="48" y="38.0" text-anchor="end" fill="#64748b" font-size="12" font-family="Arial, sans-serif">20</text>
<text x="60.0" y="502" text-anchor="middle" fill="#64748b" font-size="12" font-family="Arial, sans-serif">09 Feb</text>
<text x="170.1" y="502" text-anchor="middle" fill="#64748b" font-size="12" font-family="Arial, sans-serif">23 Feb</text>
<text x="280.3" y="502" text-anchor="middle" fill="#64748b" font-size="12" font-family="Arial, sans-serif">09 Mar</text>
<text x="390.4" y="502" text-anchor="middle" fill="#64748b" font-size="12" font-family="Arial, sans-serif">23 Mar</text>
<text x="500.5" y="502" text-anchor="middle" fill="#64748b" font-size="12" font-family="Arial, sans-serif">06 Apr</text>
<text x="610.7" y="502" text-anchor="middle" fill="#64748b" font-size="12" font-family="Arial, sans-serif">20 Apr</text>
<text x="720.8" y="502" text-anchor="middle" fill="#64748b" font-size="12" font-family="Arial, sans-serif">04 May</text>
<text x="830.9" y="502" text-anchor="middle" fill="#64748b" font-size="12" font-family="Arial, sans-serif">18 May</text>
<text x="886.0" y="502" text-anchor="middle" fill="#64748b" font-size="12" font-family="Arial, sans-serif">25 May</text>
<polyline fill="none" stroke="#2563eb" stroke-width="4" stroke-linecap="round" stroke-linejoin="round" points="60.00,419.20 115.07,290.80 170.13,290.80 225.20,269.40 280.27,226.60 335.33,226.60 390.40,205.20 445.47,162.40 500.53,141.00 555.60,98.20 610.67,76.80 665.73,55.40 720.80,55.40 775.87,55.40 830.93,55.40 886.00,34.00" />
<circle cx="60.00" cy="419.20" r="4.5" fill="#2563eb" stroke="#fff" stroke-width="2" />
<circle cx="115.07" cy="290.80" r="4.5" fill="#2563eb" stroke="#fff" stroke-width="2" />
<circle cx="170.13" cy="290.80" r="4.5" fill="#2563eb" stroke="#fff" stroke-width="2" />
<circle cx="225.20" cy="269.40" r="4.5" fill="#2563eb" stroke="#fff" stroke-width="2" />
<circle cx="280.27" cy="226.60" r="4.5" fill="#2563eb" stroke="#fff" stroke-width="2" />
<circle cx="335.33" cy="226.60" r="4.5" fill="#2563eb" stroke="#fff" stroke-width="2" />
<circle cx="390.40" cy="205.20" r="4.5" fill="#2563eb" stroke="#fff" stroke-width="2" />
<circle cx="445.47" cy="162.40" r="4.5" fill="#2563eb" stroke="#fff" stroke-width="2" />
<circle cx="500.53" cy="141.00" r="4.5" fill="#2563eb" stroke="#fff" stroke-width="2" />
<circle cx="555.60" cy="98.20" r="4.5" fill="#2563eb" stroke="#fff" stroke-width="2" />
<circle cx="610.67" cy="76.80" r="4.5" fill="#2563eb" stroke="#fff" stroke-width="2" />
<circle cx="665.73" cy="55.40" r="4.5" fill="#2563eb" stroke="#fff" stroke-width="2" />
<circle cx="720.80" cy="55.40" r="4.5" fill="#2563eb" stroke="#fff" stroke-width="2" />
<circle cx="775.87" cy="55.40" r="4.5" fill="#2563eb" stroke="#fff" stroke-width="2" />
<circle cx="830.93" cy="55.40" r="4.5" fill="#2563eb" stroke="#fff" stroke-width="2" />
<circle cx="886.00" cy="34.00" r="4.5" fill="#2563eb" stroke="#fff" stroke-width="2" />
<polyline fill="none" stroke="#10b981" stroke-width="4" stroke-linecap="round" stroke-linejoin="round" points="60.00,462.00 115.07,440.60 170.13,419.20 225.20,397.80 280.27,397.80 335.33,355.00 390.40,355.00 445.47,333.60 500.53,312.20 555.60,269.40 610.67,248.00 665.73,205.20 720.80,205.20 775.87,205.20 830.93,183.80 886.00,183.80" />
<circle cx="60.00" cy="462.00" r="4.5" fill="#10b981" stroke="#fff" stroke-width="2" />
<circle cx="115.07" cy="440.60" r="4.5" fill="#10b981" stroke="#fff" stroke-width="2" />
<circle cx="170.13" cy="419.20" r="4.5" fill="#10b981" stroke="#fff" stroke-width="2" />
<circle cx="225.20" cy="397.80" r="4.5" fill="#10b981" stroke="#fff" stroke-width="2" />
<circle cx="280.27" cy="397.80" r="4.5" fill="#10b981" stroke="#fff" stroke-width="2" />
<circle cx="335.33" cy="355.00" r="4.5" fill="#10b981" stroke="#fff" stroke-width="2" />
<circle cx="390.40" cy="355.00" r="4.5" fill="#10b981" stroke="#fff" stroke-width="2" />
<circle cx="445.47" cy="333.60" r="4.5" fill="#10b981" stroke="#fff" stroke-width="2" />
<circle cx="500.53" cy="312.20" r="4.5" fill="#10b981" stroke="#fff" stroke-width="2" />
<circle cx="555.60" cy="269.40" r="4.5" fill="#10b981" stroke="#fff" stroke-width="2" />
<circle cx="610.67" cy="248.00" r="4.5" fill="#10b981" stroke="#fff" stroke-width="2" />
<circle cx="665.73" cy="205.20" r="4.5" fill="#10b981" stroke="#fff" stroke-width="2" />
<circle cx="720.80" cy="205.20" r="4.5" fill="#10b981" stroke="#fff" stroke-width="2" />
<circle cx="775.87" cy="205.20" r="4.5" fill="#10b981" stroke="#fff" stroke-width="2" />
<circle cx="830.93" cy="183.80" r="4.5" fill="#10b981" stroke="#fff" stroke-width="2" />
<circle cx="886.00" cy="183.80" r="4.5" fill="#10b981" stroke="#fff" stroke-width="2" />
<polyline fill="none" stroke="#f97316" stroke-width="4" stroke-linecap="round" stroke-linejoin="round" points="60.00,419.20 115.07,312.20 170.13,333.60 225.20,333.60 280.27,290.80 335.33,333.60 390.40,312.20 445.47,290.80 500.53,290.80 555.60,290.80 610.67,290.80 665.73,312.20 720.80,312.20 775.87,312.20 830.93,333.60 886.00,312.20" />
<circle cx="60.00" cy="419.20" r="4.5" fill="#f97316" stroke="#fff" stroke-width="2" />
<circle cx="115.07" cy="312.20" r="4.5" fill="#f97316" stroke="#fff" stroke-width="2" />
<circle cx="170.13" cy="333.60" r="4.5" fill="#f97316" stroke="#fff" stroke-width="2" />
<circle cx="225.20" cy="333.60" r="4.5" fill="#f97316" stroke="#fff" stroke-width="2" />
<circle cx="280.27" cy="290.80" r="4.5" fill="#f97316" stroke="#fff" stroke-width="2" />
<circle cx="335.33" cy="333.60" r="4.5" fill="#f97316" stroke="#fff" stroke-width="2" />
<circle cx="390.40" cy="312.20" r="4.5" fill="#f97316" stroke="#fff" stroke-width="2" />
<circle cx="445.47" cy="290.80" r="4.5" fill="#f97316" stroke="#fff" stroke-width="2" />
<circle cx="500.53" cy="290.80" r="4.5" fill="#f97316" stroke="#fff" stroke-width="2" />
<circle cx="555.60" cy="290.80" r="4.5" fill="#f97316" stroke="#fff" stroke-width="2" />
<circle cx="610.67" cy="290.80" r="4.5" fill="#f97316" stroke="#fff" stroke-width="2" />
<circle cx="665.73" cy="312.20" r="4.5" fill="#f97316" stroke="#fff" stroke-width="2" />
<circle cx="720.80" cy="312.20" r="4.5" fill="#f97316" stroke="#fff" stroke-width="2" />
<circle cx="775.87" cy="312.20" r="4.5" fill="#f97316" stroke="#fff" stroke-width="2" />
<circle cx="830.93" cy="333.60" r="4.5" fill="#f97316" stroke="#fff" stroke-width="2" />
<circle cx="886.00" cy="312.20" r="4.5" fill="#f97316" stroke="#fff" stroke-width="2" />
<rect x="904" y="35.0" width="112" height="26" rx="13" fill="#ffffff" stroke="#2563eb" stroke-width="1.5" />
<circle cx="918" cy="48.0" r="5" fill="#2563eb" />
<text x="930" y="52.0" fill="#0f172a" font-size="12" font-family="Arial, sans-serif" font-weight="700">Created 20</text>
<rect x="904" y="170.8" width="112" height="26" rx="13" fill="#ffffff" stroke="#10b981" stroke-width="1.5" />
<circle cx="918" cy="183.8" r="5" fill="#10b981" />
<text x="930" y="187.8" fill="#0f172a" font-size="12" font-family="Arial, sans-serif" font-weight="700">Closed 13</text>
<rect x="904" y="299.2" width="112" height="26" rx="13" fill="#ffffff" stroke="#f97316" stroke-width="1.5" />
<circle cx="918" cy="312.2" r="5" fill="#f97316" />
<text x="930" y="316.2" fill="#0f172a" font-size="12" font-family="Arial, sans-serif" font-weight="700">Open 7</text>
</svg>