<svg xmlns="http://www.w3.org/2000/svg" width="1040" height="520" viewBox="0 0 1040 520" role="img">
<rect width="100%" height="100%" rx="28" fill="#f8fafc" />
<line x1="60" y1="462.0" x2="886" y2="462.0" stroke="#dbe4f0" stroke-width="1" />
<text x="48" y="466.0" text-anchor="end" fill="#64748b" font-size="12" font-family="Arial, sans-serif">0</text>
<line x1="60" y1="355.0" x2="886" y2="355.0" stroke="#dbe4f0" stroke-width="1" />
<text x="48" y="359.0" text-anchor="end" fill="#64748b" font-size="12" font-family="Arial, sans-serif">5</text>
<line x1="60" y1="248.0" x2="886" y2="248.0" stroke="#dbe4f0" stroke-width="1" />
<text x="48" y="252.0" text-anchor="end" fill="#64748b" font-size="12" font-family="Arial, sans-serif">10</text>
<line x1="60" y1="141.0" x2="886" y2="141.0" stroke="#dbe4f0" stroke-width="1" />
<text x="48" y="145.0" text-anchor="end" fill="#64748b" font-size="12" font-family="Arial, sans-serif">15</text>
<line x1="60" y1="34.0" x2="886" y2="34.0" stroke="#dbe4f0" stroke-width="1" />
<text x="48" y="38.0" text-anchor="end" fill="#64748b" font-size="12" font-family="Arial, sans-serif">20</text>
<text x="60.0" y="502" text-anchor="middle" fill="#64748b" font-size="12" font-family="Arial, sans-serif">09 Feb</text>
<text x="178.0" y="502" text-anchor="middle" fill="#64748b" font-size="12" font-family="Arial, sans-serif">02 Mar</text>
<text x="296.0" y="502" text-anchor="middle" fill="#64748b" font-size="12" font-family="Arial, sans-serif">23 Mar</text>
<text x="414.0" y="502" text-anchor="middle" fill="#64748b" font-size="12" font-family="Arial, sans-serif">13 Apr</text>
<text x="532.0" y="502" text-anchor="middle" fill="#64748b" font-size="12" font-family="Arial, sans-serif">04 May</text>
<text x="650.0" y="502" text-anchor="middle" fill="#64748b" font-size="12" font-family="Arial, sans-serif">25 May</text>
<text x="768.0" y="502" text-anchor="middle" fill="#64748b" font-size="12" font-family="Arial, sans-serif">15 Jun</text>
<text x="886.0" y="502" text-anchor="middle" fill="#64748b" font-size="12" font-family="Arial, sans-serif">06 Jul</text>
<polyline fill="none" stroke="#2563eb" stroke-width="4" stroke-linecap="round" stroke-linejoin="round" points="60.00,419.20 99.33,290.80 138.67,290.80 178.00,269.40 217.33,226.60 256.67,226.60 296.00,205.20 335.33,162.40 374.67,141.00 414.00,98.20 453.33,76.80 492.67,76.80 532.00,76.80 571.33,76.80 610.67,76.80 650.00,55.40 689.33,55.40 728.67,55.40 768.00,34.00 807.33,34.00 846.67,34.00 886.00,34.00" />
<circle cx="60.00" cy="419.20" r="4.5" fill="#2563eb" stroke="#fff" stroke-width="2" />
<circle cx="99.33" cy="290.80" r="4.5" fill="#2563eb" stroke="#fff" stroke-width="2" />
<circle cx="138.67" cy="290.80" r="4.5" fill="#2563eb" stroke="#fff" stroke-width="2" />
<circle cx="178.00" cy="269.40" r="4.5" fill="#2563eb" stroke="#fff" stroke-width="2" />
<circle cx="217.33" cy="226.60" r="4.5" fill="#2563eb" stroke="#fff" stroke-width="2" />
<circle cx="256.67" cy="226.60" r="4.5" fill="#2563eb" stroke="#fff" stroke-width="2" />
<circle cx="296.00" cy="205.20" r="4.5" fill="#2563eb" stroke="#fff" stroke-width="2" />
<circle cx="335.33" cy="162.40" r="4.5" fill="#2563eb" stroke="#fff" stroke-width="2" />
<circle cx="374.67" cy="141.00" r="4.5" fill="#2563eb" stroke="#fff" stroke-width="2" />
<circle cx="414.00" cy="98.20" r="4.5" fill="#2563eb" stroke="#fff" stroke-width="2" />
<circle cx="453.33" cy="76.80" r="4.5" fill="#2563eb" stroke="#fff" stroke-width="2" />
<circle cx="492.67" cy="76.80" r="4.5" fill="#2563eb" stroke="#fff" stroke-width="2" />
<circle cx="532.00" cy="76.80" r="4.5" fill="#2563eb" stroke="#fff" stroke-width="2" />
<circle cx="571.33" cy="76.80" r="4.5" fill="#2563eb" stroke="#fff" stroke-width="2" />
<circle cx="610.67" cy="76.80" r="4.5" fill="#2563eb" stroke="#fff" stroke-width="2" />
<circle cx="650.00" cy="55.40" r="4.5" fill="#2563eb" stroke="#fff" stroke-width="2" />
<circle cx="689.33" cy="55.40" r="4.5" fill="#2563eb" stroke="#fff" stroke-width="2" />
<circle cx="728.67" cy="55.40" r="4.5" fill="#2563eb" stroke="#fff" stroke-width="2" />
<circle cx="768.00" cy="34.00" r="4.5" fill="#2563eb" stroke="#fff" stroke-width="2" />
<circle cx="807.33" cy="34.00" r="4.5" fill="#2563eb" stroke="#fff" stroke-width="2" />
<circle cx="846.67" cy="34.00" r="4.5" fill="#2563eb" stroke="#fff" stroke-width="2" />
<circle cx="886.00" cy="34.00" r="4.5" fill="#2563eb" stroke="#fff" stroke-width="2" />
<polyline fill="none" stroke="#10b981" stroke-width="4" stroke-linecap="round" stroke-linejoin="round" points="60.00,462.00 99.33,440.60 138.67,419.20 178.00,397.80 217.33,397.80 256.67,355.00 296.00,355.00 335.33,333.60 374.67,312.20 414.00,269.40 453.33,248.00 492.67,205.20 532.00,205.20 571.33,205.20 610.67,183.80 650.00,183.80 689.33,183.80 728.67,162.40 768.00,141.00 807.33,119.60 846.67,119.60 886.00,119.60" />
<circle cx="60.00" cy="462.00" r="4.5" fill="#10b981" stroke="#fff" stroke-width="2" />
<circle cx="99.33" cy="440.60" r="4.5" fill="#10b981" stroke="#fff" stroke-width="2" />
<circle cx="138.67" cy="419.20" r="4.5" fill="#10b981" stroke="#fff" stroke-width="2" />
<circle cx="178.00" cy="397.80" r="4.5" fill="#10b981" stroke="#fff" stroke-width="2" />
<circle cx="217.33" cy="397.80" r="4.5" fill="#10b981" stroke="#fff" stroke-width="2" />
<circle cx="256.67" cy="355.00" r="4.5" fill="#10b981" stroke="#fff" stroke-width="2" />
<circle cx="296.00" cy="355.00" r="4.5" fill="#10b981" stroke="#fff" stroke-width="2" />
<circle cx="335.33" cy="333.60" r="4.5" fill="#10b981" stroke="#fff" stroke-width="2" />
<circle cx="374.67" cy="312.20" r="4.5" fill="#10b981" stroke="#fff" stroke-width="2" />
<circle cx="414.00" cy="269.40" r="4.5" fill="#10b981" stroke="#fff" stroke-width="2" />
<circle cx="453.33" cy="248.00" r="4.5" fill="#10b981" stroke="#fff" stroke-width="2" />
<circle cx="492.67" cy="205.20" r="4.5" fill="#10b981" stroke="#fff" stroke-width="2" />
<circle cx="532.00" cy="205.20" r="4.5" fill="#10b981" stroke="#fff" stroke-width="2" />
<circle cx="571.33" cy="205.20" r="4.5" fill="#10b981" stroke="#fff" stroke-width="2" />
<circle cx="610.67" cy="183.80" r="4.5" fill="#10b981" stroke="#fff" stroke-width="2" />
<circle cx="650.00" cy="183.80" r="4.5" fill="#10b981" stroke="#fff" stroke-width="2" />
<circle cx="689.33" cy="183.80" r="4.5" fill="#10b981" stroke="#fff" stroke-width="2" />
<circle cx="728.67" cy="162.40" r="4.5" fill="#10b981" stroke="#fff" stroke-width="2" />
<circle cx="768.00" cy="141.00" r="4.5" fill="#10b981" stroke="#fff" stroke-width="2" />
<circle cx="807.33" cy="119.60" r="4.5" fill="#10b981" stroke="#fff" stroke-width="2" />
<circle cx="846.67" cy="119.60" r="4.5" fill="#10b981" stroke="#fff" stroke-width="2" />
<circle cx="886.00" cy="119.60" r="4.5" fill="#10b981" stroke="#fff" stroke-width="2" />
<polyline fill="none" stroke="#f97316" stroke-width="4" stroke-linecap="round" stroke-linejoin="round" points="60.00,419.20 99.33,312.20 138.67,333.60 178.00,333.60 217.33,290.80 256.67,333.60 296.00,312.20 335.33,290.80 374.67,290.80 414.00,290.80 453.33,290.80 492.67,333.60 532.00,333.60 571.33,333.60 610.67,355.00 650.00,333.60 689.33,333.60 728.67,355.00 768.00,355.00 807.33,376.40 846.67,376.40 886.00,376.40" />
<circle cx="60.00" cy="419.20" r="4.5" fill="#f97316" stroke="#fff" stroke-width="2" />
<circle cx="99.33" cy="312.20" r="4.5" fill="#f97316" stroke="#fff" stroke-width="2" />
<circle cx="138.67" cy="333.60" r="4.5" fill="#f97316" stroke="#fff" stroke-width="2" />
<circle cx="178.00" cy="333.60" r="4.5" fill="#f97316" stroke="#fff" stroke-width="2" />
<circle cx="217.33" cy="290.80" r="4.5" fill="#f97316" stroke="#fff" stroke-width="2" />
<circle cx="256.67" cy="333.60" r="4.5" fill="#f97316" stroke="#fff" stroke-width="2" />
<circle cx="296.00" cy="312.20" r="4.5" fill="#f97316" stroke="#fff" stroke-width="2" />
<circle cx="335.33" cy="290.80" r="4.5" fill="#f97316" stroke="#fff" stroke-width="2" />
<circle cx="374.67" cy="290.80" r="4.5" fill="#f97316" stroke="#fff" stroke-width="2" />
<circle cx="414.00" cy="290.80" r="4.5" fill="#f97316" stroke="#fff" stroke-width="2" />
<circle cx="453.33" cy="290.80" r="4.5" fill="#f97316" stroke="#fff" stroke-width="2" />
<circle cx="492.67" cy="333.60" r="4.5" fill="#f97316" stroke="#fff" stroke-width="2" />
<circle cx="532.00" cy="333.60" r="4.5" fill="#f97316" stroke="#fff" stroke-width="2" />
<circle cx="571.33" cy="333.60" r="4.5" fill="#f97316" stroke="#fff" stroke-width="2" />
<circle cx="610.67" cy="355.00" r="4.5" fill="#f97316" stroke="#fff" stroke-width="2" />
<circle cx="650.00" cy="333.60" r="4.5" fill="#f97316" stroke="#fff" stroke-width="2" />
<circle cx="689.33" cy="333.60" r="4.5" fill="#f97316" stroke="#fff" stroke-width="2" />
<circle cx="728.67" cy="355.00" r="4.5" fill="#f97316" stroke="#fff" stroke-width="2" />
<circle cx="768.00" cy="355.00" r="4.5" fill="#f97316" stroke="#fff" stroke-width="2" />
<circle cx="807.33" cy="376.40" r="4.5" fill="#f97316" stroke="#fff" stroke-width="2" />
<circle cx="846.67" cy="376.40" r="4.5" fill="#f97316" stroke="#fff" stroke-width="2" />
<circle cx="886.00" cy="376.40" r="4.5" fill="#f97316" stroke="#fff" stroke-width="2" />
<rect x="904" y="35.0" width="112" height="26" rx="13" fill="#ffffff" stroke="#2563eb" stroke-width="1.5" />
<circle cx="918" cy="48.0" r="5" fill="#2563eb" />
<text x="930" y="52.0" fill="#0f172a" font-size="12" font-family="Arial, sans-serif" font-weight="700">Created 20</text>
<rect x="904" y="106.6" width="112" height="26" rx="13" fill="#ffffff" stroke="#10b981" stroke-width="1.5" />
<circle cx="918" cy="119.6" r="5" fill="#10b981" />
<text x="930" y="123.6" fill="#0f172a" font-size="12" font-family="Arial, sans-serif" font-weight="700">Closed 16</text>
<rect x="904" y="363.4" width="112" height="26" rx="13" fill="#ffffff" stroke="#f97316" stroke-width="1.5" />
<circle cx="918" cy="376.4" r="5" fill="#f97316" />
<text x="930" y="380.4" fill="#0f172a" font-size="12" font-family="Arial, sans-serif" font-weight="700">Open 4</text>
</svg>