<svg xmlns="http://www.w3.org/2000/svg" width="1040" height="520" viewBox="0 0 1040 520" role="img">
<rect width="100%" height="100%" rx="28" fill="#f8fafc" />
<line x1="60" y1="462.0" x2="886" y2="462.0" stroke="#dbe4f0" stroke-width="1" />
<text x="48" y="466.0" text-anchor="end" fill="#64748b" font-size="12" font-family="Arial, sans-serif">0</text>
<line x1="60" y1="355.0" x2="886" y2="355.0" stroke="#dbe4f0" stroke-width="1" />
<text x="48" y="359.0" text-anchor="end" fill="#64748b" font-size="12" font-family="Arial, sans-serif">7</text>
<line x1="60" y1="248.0" x2="886" y2="248.0" stroke="#dbe4f0" stroke-width="1" />
<text x="48" y="252.0" text-anchor="end" fill="#64748b" font-size="12" font-family="Arial, sans-serif">14</text>
<line x1="60" y1="141.0" x2="886" y2="141.0" stroke="#dbe4f0" stroke-width="1" />
<text x="48" y="145.0" text-anchor="end" fill="#64748b" font-size="12" font-family="Arial, sans-serif">21</text>
<line x1="60" y1="34.0" x2="886" y2="34.0" stroke="#dbe4f0" stroke-width="1" />
<text x="48" y="38.0" text-anchor="end" fill="#64748b" font-size="12" font-family="Arial, sans-serif">28</text>
<text x="60.0" y="502" text-anchor="middle" fill="#64748b" font-size="12" font-family="Arial, sans-serif">09 Feb</text>
<text x="170.1" y="502" text-anchor="middle" fill="#64748b" font-size="12" font-family="Arial, sans-serif">09 Mar</text>
<text x="280.3" y="502" text-anchor="middle" fill="#64748b" font-size="12" font-family="Arial, sans-serif">06 Apr</text>
<text x="390.4" y="502" text-anchor="middle" fill="#64748b" font-size="12" font-family="Arial, sans-serif">04 May</text>
<text x="500.5" y="502" text-anchor="middle" fill="#64748b" font-size="12" font-family="Arial, sans-serif">01 Jun</text>
<text x="610.7" y="502" text-anchor="middle" fill="#64748b" font-size="12" font-family="Arial, sans-serif">29 Jun</text>
<text x="720.8" y="502" text-anchor="middle" fill="#64748b" font-size="12" font-family="Arial, sans-serif">27 Jul</text>
<text x="830.9" y="502" text-anchor="middle" fill="#64748b" font-size="12" font-family="Arial, sans-serif">24 Aug</text>
<text x="886.0" y="502" text-anchor="middle" fill="#64748b" font-size="12" font-family="Arial, sans-serif">07 Sep</text>
<polyline fill="none" stroke="#2563eb" stroke-width="4" stroke-linecap="round" stroke-linejoin="round" points="60.00,431.43 87.53,339.71 115.07,339.71 142.60,324.43 170.13,293.86 197.67,293.86 225.20,278.57 252.73,248.00 280.27,232.71 307.80,202.14 335.33,186.86 362.87,186.86 390.40,186.86 417.93,186.86 445.47,186.86 473.00,171.57 500.53,171.57 528.07,171.57 555.60,156.29 583.13,156.29 610.67,156.29 638.20,156.29 665.73,141.00 693.27,125.71 720.80,110.43 748.33,110.43 775.87,110.43 803.40,110.43 830.93,64.57 858.47,49.29 886.00,49.29" />
<circle cx="60.00" cy="431.43" r="4.5" fill="#2563eb" stroke="#fff" stroke-width="2" />
<circle cx="87.53" cy="339.71" r="4.5" fill="#2563eb" stroke="#fff" stroke-width="2" />
<circle cx="115.07" cy="339.71" r="4.5" fill="#2563eb" stroke="#fff" stroke-width="2" />
<circle cx="142.60" cy="324.43" r="4.5" fill="#2563eb" stroke="#fff" stroke-width="2" />
<circle cx="170.13" cy="293.86" r="4.5" fill="#2563eb" stroke="#fff" stroke-width="2" />
<circle cx="197.67" cy="293.86" r="4.5" fill="#2563eb" stroke="#fff" stroke-width="2" />
<circle cx="225.20" cy="278.57" r="4.5" fill="#2563eb" stroke="#fff" stroke-width="2" />
<circle cx="252.73" cy="248.00" r="4.5" fill="#2563eb" stroke="#fff" stroke-width="2" />
<circle cx="280.27" cy="232.71" r="4.5" fill="#2563eb" stroke="#fff" stroke-width="2" />
<circle cx="307.80" cy="202.14" r="4.5" fill="#2563eb" stroke="#fff" stroke-width="2" />
<circle cx="335.33" cy="186.86" r="4.5" fill="#2563eb" stroke="#fff" stroke-width="2" />
<circle cx="362.87" cy="186.86" r="4.5" fill="#2563eb" stroke="#fff" stroke-width="2" />
<circle cx="390.40" cy="186.86" r="4.5" fill="#2563eb" stroke="#fff" stroke-width="2" />
<circle cx="417.93" cy="186.86" r="4.5" fill="#2563eb" stroke="#fff" stroke-width="2" />
<circle cx="445.47" cy="186.86" r="4.5" fill="#2563eb" stroke="#fff" stroke-width="2" />
<circle cx="473.00" cy="171.57" r="4.5" fill="#2563eb" stroke="#fff" stroke-width="2" />
<circle cx="500.53" cy="171.57" r="4.5" fill="#2563eb" stroke="#fff" stroke-width="2" />
<circle cx="528.07" cy="171.57" r="4.5" fill="#2563eb" stroke="#fff" stroke-width="2" />
<circle cx="555.60" cy="156.29" r="4.5" fill="#2563eb" stroke="#fff" stroke-width="2" />
<circle cx="583.13" cy="156.29" r="4.5" fill="#2563eb" stroke="#fff" stroke-width="2" />
<circle cx="610.67" cy="156.29" r="4.5" fill="#2563eb" stroke="#fff" stroke-width="2" />
<circle cx="638.20" cy="156.29" r="4.5" fill="#2563eb" stroke="#fff" stroke-width="2" />
<circle cx="665.73" cy="141.00" r="4.5" fill="#2563eb" stroke="#fff" stroke-width="2" />
<circle cx="693.27" cy="125.71" r="4.5" fill="#2563eb" stroke="#fff" stroke-width="2" />
<circle cx="720.80" cy="110.43" r="4.5" fill="#2563eb" stroke="#fff" stroke-width="2" />
<circle cx="748.33" cy="110.43" r="4.5" fill="#2563eb" stroke="#fff" stroke-width="2" />
<circle cx="775.87" cy="110.43" r="4.5" fill="#2563eb" stroke="#fff" stroke-width="2" />
<circle cx="803.40" cy="110.43" r="4.5" fill="#2563eb" stroke="#fff" stroke-width="2" />
<circle cx="830.93" cy="64.57" r="4.5" fill="#2563eb" stroke="#fff" stroke-width="2" />
<circle cx="858.47" cy="49.29" r="4.5" fill="#2563eb" stroke="#fff" stroke-width="2" />
<circle cx="886.00" cy="49.29" r="4.5" fill="#2563eb" stroke="#fff" stroke-width="2" />
<polyline fill="none" stroke="#10b981" stroke-width="4" stroke-linecap="round" stroke-linejoin="round" points="60.00,462.00 87.53,446.71 115.07,431.43 142.60,416.14 170.13,416.14 197.67,385.57 225.20,385.57 252.73,370.29 280.27,355.00 307.80,324.43 335.33,309.14 362.87,278.57 390.40,278.57 417.93,278.57 445.47,263.29 473.00,263.29 500.53,263.29 528.07,248.00 555.60,232.71 583.13,217.43 610.67,217.43 638.20,217.43 665.73,217.43 693.27,186.86 720.80,186.86 748.33,171.57 775.87,171.57 803.40,171.57 830.93,141.00 858.47,141.00 886.00,110.43" />
<circle cx="60.00" cy="462.00" r="4.5" fill="#10b981" stroke="#fff" stroke-width="2" />
<circle cx="87.53" cy="446.71" r="4.5" fill="#10b981" stroke="#fff" stroke-width="2" />
<circle cx="115.07" cy="431.43" r="4.5" fill="#10b981" stroke="#fff" stroke-width="2" />
<circle cx="142.60" cy="416.14" r="4.5" fill="#10b981" stroke="#fff" stroke-width="2" />
<circle cx="170.13" cy="416.14" r="4.5" fill="#10b981" stroke="#fff" stroke-width="2" />
<circle cx="197.67" cy="385.57" r="4.5" fill="#10b981" stroke="#fff" stroke-width="2" />
<circle cx="225.20" cy="385.57" r="4.5" fill="#10b981" stroke="#fff" stroke-width="2" />
<circle cx="252.73" cy="370.29" r="4.5" fill="#10b981" stroke="#fff" stroke-width="2" />
<circle cx="280.27" cy="355.00" r="4.5" fill="#10b981" stroke="#fff" stroke-width="2" />
<circle cx="307.80" cy="324.43" r="4.5" fill="#10b981" stroke="#fff" stroke-width="2" />
<circle cx="335.33" cy="309.14" r="4.5" fill="#10b981" stroke="#fff" stroke-width="2" />
<circle cx="362.87" cy="278.57" r="4.5" fill="#10b981" stroke="#fff" stroke-width="2" />
<circle cx="390.40" cy="278.57" r="4.5" fill="#10b981" stroke="#fff" stroke-width="2" />
<circle cx="417.93" cy="278.57" r="4.5" fill="#10b981" stroke="#fff" stroke-width="2" />
<circle cx="445.47" cy="263.29" r="4.5" fill="#10b981" stroke="#fff" stroke-width="2" />
<circle cx="473.00" cy="263.29" r="4.5" fill="#10b981" stroke="#fff" stroke-width="2" />
<circle cx="500.53" cy="263.29" r="4.5" fill="#10b981" stroke="#fff" stroke-width="2" />
<circle cx="528.07" cy="248.00" r="4.5" fill="#10b981" stroke="#fff" stroke-width="2" />
<circle cx="555.60" cy="232.71" r="4.5" fill="#10b981" stroke="#fff" stroke-width="2" />
<circle cx="583.13" cy="217.43" r="4.5" fill="#10b981" stroke="#fff" stroke-width="2" />
<circle cx="610.67" cy="217.43" r="4.5" fill="#10b981" stroke="#fff" stroke-width="2" />
<circle cx="638.20" cy="217.43" r="4.5" fill="#10b981" stroke="#fff" stroke-width="2" />
<circle cx="665.73" cy="217.43" r="4.5" fill="#10b981" stroke="#fff" stroke-width="2" />
<circle cx="693.27" cy="186.86" r="4.5" fill="#10b981" stroke="#fff" stroke-width="2" />
<circle cx="720.80" cy="186.86" r="4.5" fill="#10b981" stroke="#fff" stroke-width="2" />
<circle cx="748.33" cy="171.57" r="4.5" fill="#10b981" stroke="#fff" stroke-width="2" />
<circle cx="775.87" cy="171.57" r="4.5" fill="#10b981" stroke="#fff" stroke-width="2" />
<circle cx="803.40" cy="171.57" r="4.5" fill="#10b981" stroke="#fff" stroke-width="2" />
<circle cx="830.93" cy="141.00" r="4.5" fill="#10b981" stroke="#fff" stroke-width="2" />
<circle cx="858.47" cy="141.00" r="4.5" fill="#10b981" stroke="#fff" stroke-width="2" />
<circle cx="886.00" cy="110.43" r="4.5" fill="#10b981" stroke="#fff" stroke-width="2" />
<polyline fill="none" stroke="#f97316" stroke-width="4" stroke-linecap="round" stroke-linejoin="round" points="60.00,431.43 87.53,355.00 115.07,370.29 142.60,370.29 170.13,339.71 197.67,370.29 225.20,355.00 252.73,339.71 280.27,339.71 307.80,339.71 335.33,339.71 362.87,370.29 390.40,370.29 417.93,370.29 445.47,385.57 473.00,370.29 500.53,370.29 528.07,385.57 555.60,385.57 583.13,400.86 610.67,400.86 638.20,400.86 665.73,385.57 693.27,400.86 720.80,385.57 748.33,400.86 775.87,400.86 803.40,400.86 830.93,385.57 858.47,370.29 886.00,400.86" />
<circle cx="60.00" cy="431.43" r="4.5" fill="#f97316" stroke="#fff" stroke-width="2" />
<circle cx="87.53" cy="355.00" r="4.5" fill="#f97316" stroke="#fff" stroke-width="2" />
<circle cx="115.07" cy="370.29" r="4.5" fill="#f97316" stroke="#fff" stroke-width="2" />
<circle cx="142.60" cy="370.29" r="4.5" fill="#f97316" stroke="#fff" stroke-width="2" />
<circle cx="170.13" cy="339.71" r="4.5" fill="#f97316" stroke="#fff" stroke-width="2" />
<circle cx="197.67" cy="370.29" r="4.5" fill="#f97316" stroke="#fff" stroke-width="2" />
<circle cx="225.20" cy="355.00" r="4.5" fill="#f97316" stroke="#fff" stroke-width="2" />
<circle cx="252.73" cy="339.71" r="4.5" fill="#f97316" stroke="#fff" stroke-width="2" />
<circle cx="280.27" cy="339.71" r="4.5" fill="#f97316" stroke="#fff" stroke-width="2" />
<circle cx="307.80" cy="339.71" r="4.5" fill="#f97316" stroke="#fff" stroke-width="2" />
<circle cx="335.33" cy="339.71" r="4.5" fill="#f97316" stroke="#fff" stroke-width="2" />
<circle cx="362.87" cy="370.29" r="4.5" fill="#f97316" stroke="#fff" stroke-width="2" />
<circle cx="390.40" cy="370.29" r="4.5" fill="#f97316" stroke="#fff" stroke-width="2" />
<circle cx="417.93" cy="370.29" r="4.5" fill="#f97316" stroke="#fff" stroke-width="2" />
<circle cx="445.47" cy="385.57" r="4.5" fill="#f97316" stroke="#fff" stroke-width="2" />
<circle cx="473.00" cy="370.29" r="4.5" fill="#f97316" stroke="#fff" stroke-width="2" />
<circle cx="500.53" cy="370.29" r="4.5" fill="#f97316" stroke="#fff" stroke-width="2" />
<circle cx="528.07" cy="385.57" r="4.5" fill="#f97316" stroke="#fff" stroke-width="2" />
<circle cx="555.60" cy="385.57" r="4.5" fill="#f97316" stroke="#fff" stroke-width="2" />
<circle cx="583.13" cy="400.86" r="4.5" fill="#f97316" stroke="#fff" stroke-width="2" />
<circle cx="610.67" cy="400.86" r="4.5" fill="#f97316" stroke="#fff" stroke-width="2" />
<circle cx="638.20" cy="400.86" r="4.5" fill="#f97316" stroke="#fff" stroke-width="2" />
<circle cx="665.73" cy="385.57" r="4.5" fill="#f97316" stroke="#fff" stroke-width="2" />
<circle cx="693.27" cy="400.86" r="4.5" fill="#f97316" stroke="#fff" stroke-width="2" />
<circle cx="720.80" cy="385.57" r="4.5" fill="#f97316" stroke="#fff" stroke-width="2" />
<circle cx="748.33" cy="400.86" r="4.5" fill="#f97316" stroke="#fff" stroke-width="2" />
<circle cx="775.87" cy="400.86" r="4.5" fill="#f97316" stroke="#fff" stroke-width="2" />
<circle cx="803.40" cy="400.86" r="4.5" fill="#f97316" stroke="#fff" stroke-width="2" />
<circle cx="830.93" cy="385.57" r="4.5" fill="#f97316" stroke="#fff" stroke-width="2" />
<circle cx="858.47" cy="370.29" r="4.5" fill="#f97316" stroke="#fff" stroke-width="2" />
<circle cx="886.00" cy="400.86" r="4.5" fill="#f97316" stroke="#fff" stroke-width="2" />
<rect x="904" y="36.3" width="112" height="26" rx="13" fill="#ffffff" stroke="#2563eb" stroke-width="1.5" />
<circle cx="918" cy="49.3" r="5" fill="#2563eb" />
<text x="930" y="53.3" fill="#0f172a" font-size="12" font-family="Arial, sans-serif" font-weight="700">Created 27</text>
<rect x="904" y="97.4" width="112" height="26" rx="13" fill="#ffffff" stroke="#10b981" stroke-width="1.5" />
<circle cx="918" cy="110.4" r="5" fill="#10b981" />
<text x="930" y="114.4" fill="#0f172a" font-size="12" font-family="Arial, sans-serif" font-weight="700">Closed 23</text>
<rect x="904" y="387.9" width="112" height="26" rx="13" fill="#ffffff" stroke="#f97316" stroke-width="1.5" />
<circle cx="918" cy="400.9" r="5" fill="#f97316" />
<text x="930" y="404.9" fill="#0f172a" font-size="12" font-family="Arial, sans-serif" font-weight="700">Open 4</text>
</svg>